<svg width="361" height="481" viewBox="0 0 361 481" fill="none" xmlns="http://www.w3.org/2000/svg">
<path d="M179.166 60.3114C190.022 47.7409 199.736 32.8848 212.592 22.0284C264.874 -21.6828 340.583 4.88675 356.868 71.1678C365.724 107.737 356.868 140.591 339.44 172.304C314.013 218.3 277.445 254.298 237.733 287.438C221.163 301.152 203.736 313.722 186.022 326.293C183.451 328.007 177.737 328.578 175.452 327.15C119.17 288.295 67.4594 244.584 29.7477 186.588C10.8919 157.733 -2.24998 126.878 0.321265 91.4521C2.32112 62.597 13.1775 37.4559 36.3187 19.1715C75.1732 -11.6835 129.455 -4.54113 162.024 35.1704C168.595 43.7412 174.023 52.8834 179.166 60.3114Z" fill="#D7E9D4"/>
<path d="M339.498 91.2572C345.784 87.6281 343.013 71.0616 333.309 54.2547C323.605 37.4478 310.643 26.765 304.358 30.3941C298.072 34.0231 300.843 50.5897 310.547 67.3966C320.251 84.2035 333.213 94.8862 339.498 91.2572Z" fill="white"/>
<path d="M75.4588 148.02C80.8235 148.02 85.1725 143.671 85.1725 138.306C85.1725 132.941 80.8235 128.592 75.4588 128.592C70.0941 128.592 65.7452 132.941 65.7452 138.306C65.7452 143.671 70.0941 148.02 75.4588 148.02Z" fill="#839D80"/>
<path d="M180.023 148.02C185.388 148.02 189.736 143.671 189.736 138.306C189.736 132.941 185.388 128.592 180.023 128.592C174.658 128.592 170.309 132.941 170.309 138.306C170.309 143.671 174.658 148.02 180.023 148.02Z" fill="#839D80"/>
<path d="M130.026 172.875C128.598 174.589 127.169 175.446 125.741 176.018C124.313 176.589 122.884 176.589 121.456 176.589C120.027 176.589 118.884 176.018 117.456 175.446C116.027 174.589 114.885 173.732 113.742 171.732C115.17 170.018 116.599 169.161 118.027 168.589C119.456 168.018 120.884 168.018 122.313 168.018C123.741 168.018 124.884 168.589 126.312 169.161C127.455 170.018 128.884 171.161 130.026 172.875Z" fill="#D68A9E"/>
<path opacity="0.31" d="M180.023 479.71C259.389 479.71 323.727 445.814 323.727 404.002C323.727 362.189 259.389 328.293 180.023 328.293C100.657 328.293 36.3188 362.189 36.3188 404.002C36.3188 445.814 100.657 479.71 180.023 479.71Z" fill="url(#paint0_radial)" stroke="url(#paint1_radial)" stroke-miterlimit="10"/>
<defs>
<radialGradient id="paint0_radial" cx="0" cy="0" r="1" gradientUnits="userSpaceOnUse" gradientTransform="translate(180.151 404.031) scale(143.682 22.7306)">
<stop stop-color="#1E0001" stop-opacity="0.95"/>
<stop offset="1" stop-color="#161412" stop-opacity="0"/>
</radialGradient>
<radialGradient id="paint1_radial" cx="0" cy="0" r="1" gradientUnits="userSpaceOnUse" gradientTransform="translate(180.151 404.011) scale(145.111 76.517)">
<stop stop-color="#1F0000" stop-opacity="0.95"/>
<stop offset="0.2122" stop-color="#161412" stop-opacity="0.7484"/>
<stop offset="0.7572" stop-color="#1F0000" stop-opacity="0.57"/>
<stop offset="1" stop-color="#161412" stop-opacity="0"/>
</radialGradient>
</defs>
</svg>
